<svg class="bowl" viewBox="0 0 420 430" xmlns="http://www.w3.org/2000/svg" role="img" aria-label="Bowl of loaded noodles">
  <defs>
    <radialGradient id="bowlGlow" cx="50%" cy="42%" r="65%">
      <stop offset="0%" stop-color="#3a3a3c"/><stop offset="70%" stop-color="#232325"/><stop offset="100%" stop-color="#1a1a1c"/>
    </radialGradient>
    <radialGradient id="noodleBase" cx="45%" cy="40%" r="70%">
      <stop offset="0%" stop-color="#E9A62B"/><stop offset="100%" stop-color="#C97F10"/>
    </radialGradient>
    <radialGradient id="yolk" cx="38%" cy="34%" r="70%">
      <stop offset="0%" stop-color="#FFC94D"/><stop offset="55%" stop-color="#F5A623"/><stop offset="100%" stop-color="#E08A0A"/>
    </radialGradient>
    <linearGradient id="stick" x1="0" y1="0" x2="1" y2="1">
      <stop offset="0%" stop-color="#C89B6A"/><stop offset="100%" stop-color="#9A6F42"/>
    </linearGradient>
    <filter id="soft" x="-40%" y="-40%" width="180%" height="180%"><feGaussianBlur stdDeviation="6"/></filter>
    <filter id="steamBlur" x="-60%" y="-60%" width="220%" height="220%"><feGaussianBlur stdDeviation="4.5"/></filter>
    <clipPath id="noodleClip"><ellipse cx="210" cy="225" rx="138" ry="127"/></clipPath>
  </defs>

  <!-- warm glow + shadow under bowl -->
  <ellipse cx="210" cy="239" rx="196" ry="182" fill="#F57C00" opacity="0.10" filter="url(#soft)"/>
  <ellipse cx="210" cy="251" rx="182" ry="164" fill="#000" opacity="0.55" filter="url(#soft)"/>

  <!-- bowl -->
  <ellipse cx="210" cy="225" rx="180" ry="167" fill="url(#bowlGlow)"/>
  <ellipse cx="210" cy="225" rx="180" ry="167" fill="none" stroke="#4a4a4e" stroke-width="1.4" opacity="0.9"/>
  <path d="M32 207 A178 165 0 0 1 272 62" fill="none" stroke="#FFC107" stroke-width="2.4" opacity="0.35" stroke-linecap="round"/>
  <ellipse cx="210" cy="225" rx="152" ry="141" fill="#141414"/>

  <!-- noodles -->
  <ellipse cx="210" cy="225" rx="140" ry="129" fill="url(#noodleBase)"/>
  <g clip-path="url(#noodleClip)">
      <path d="M242.7 266.9 Q234.1 273.4 224.0 278.2 Q212.6 279.7 201.5 277.3 Q192.0 271.6 184.7 264.2 Q179.2 256.8 174.1 250.1 Q169.0 243.6 164.1 236.4 Q160.9 228.2 161.1 219.5 Q165.0 211.5 171.9 205.5" fill="none" stroke="#C87D12" stroke-width="8.5" stroke-linecap="round"/>
      <path d="M283.3 241.2 Q278.9 251.6 272.9 261.2 Q265.6 270.0 257.3 278.0 Q247.9 285.2 237.5 291.5 Q225.9 296.6 213.2 300.2 Q199.7 302.0 185.7 301.5 Q171.7 298.6 158.5 293.1 Q146.6 285.1 136.6 275.1" fill="none" stroke="#C87D12" stroke-width="8.5" stroke-linecap="round"/>
      <path d="M218.4 270.5 Q208.9 270.8 200.6 265.5 Q194.8 258.0 190.6 251.7 Q185.0 248.2 176.2 246.3 Q164.7 243.2 154.2 236.6 Q148.7 226.8 150.5 216.3 Q158.1 207.7 167.7 201.9 Q175.9 197.1 181.5 190.9" fill="none" stroke="#C87D12" stroke-width="8.5" stroke-linecap="round"/>
      <path d="M233.2 198.7 Q236.8 202.1 239.6 206.1 Q241.5 210.5 242.6 214.9 Q243.1 219.4 243.2 223.7 Q243.1 228.1 242.9 232.5 Q242.4 237.0 241.7 241.9 Q240.4 247.0 238.4 252.3 Q235.3 257.5 231.2 262.4" fill="none" stroke="#C87D12" stroke-width="8.5" stroke-linecap="round"/>
      <path d="M165.6 202.0 Q171.7 195.1 180.9 191.6 Q190.9 191.6 199.7 193.5 Q206.7 195.0 212.9 195.0 Q219.8 193.8 227.6 193.3 Q235.1 195.4 240.2 200.8 Q241.5 208.2 239.2 215.7 Q235.4 221.7 232.5 226.0" fill="none" stroke="#C87D12" stroke-width="8.5" stroke-linecap="round"/>
      <path d="M189.8 185.2 Q196.2 180.2 204.0 177.3 Q212.4 177.5 220.1 180.8 Q226.2 186.2 230.7 192.4 Q234.3 198.0 237.9 202.5 Q242.5 206.3 247.9 210.4 Q253.1 215.5 256.4 221.8 Q256.7 228.7 253.6 235.1" fill="none" stroke="#C87D12" stroke-width="8.5" stroke-linecap="round"/>
      <path d="M175.9 130.4 Q190.5 129.4 204.8 130.8 Q218.4 133.7 231.2 137.2 Q243.8 140.8 256.6 144.3 Q269.9 148.4 283.5 153.7 Q296.6 160.9 308.3 170.5 Q317.4 182.3 323.1 195.9 Q325.0 210.3 323.5 224.7" fill="none" stroke="#C87D12" stroke-width="8.5" stroke-linecap="round"/>
      <path d="M270.5 218.0 Q268.4 224.6 264.8 230.5 Q260.4 235.7 256.3 240.2 Q253.0 244.6 250.7 249.3 Q248.9 254.8 247.0 260.8 Q244.3 267.0 240.1 272.7 Q234.5 276.9 227.7 279.1 Q220.5 279.1 213.4 277.1" fill="none" stroke="#C87D12" stroke-width="8.5" stroke-linecap="round"/>
      <path d="M192.2 196.0 Q201.2 199.3 207.6 202.2 Q213.1 200.1 221.0 194.7 Q231.0 192.2 238.2 196.7 Q239.3 205.7 237.1 214.1 Q237.9 219.8 244.0 225.2 Q250.9 233.3 251.6 242.4 Q244.3 248.3 233.7 249.5" fill="none" stroke="#C87D12" stroke-width="8.5" stroke-linecap="round"/>
      <path d="M127.9 183.6 Q139.4 173.8 154.3 168.7 Q168.3 165.6 179.9 160.9 Q190.6 152.8 203.1 143.5 Q218.3 137.6 234.2 138.8 Q247.5 147.3 256.9 159.6 Q264.2 171.2 273.0 180.3 Q285.0 188.0 298.3 197.4" fill="none" stroke="#C87D12" stroke-width="8.5" stroke-linecap="round"/>
      <path d="M198.3 190.6 Q206.7 197.8 211.8 204.0 Q216.2 204.5 223.5 200.3 Q233.7 196.8 242.2 199.0 Q244.0 206.7 238.9 215.7 Q232.0 222.1 230.1 225.9 Q234.6 230.6 241.0 238.2 Q242.6 246.7 236.7 251.3" fill="none" stroke="#C87D12" stroke-width="8.5" stroke-linecap="round"/>
      <path d="M303.3 237.2 Q301.6 251.8 296.7 265.9 Q288.5 278.7 277.6 289.8 Q264.6 298.5 250.1 304.7 Q234.9 308.6 219.4 310.2 Q204.0 309.9 188.8 307.9 Q173.9 304.3 159.3 299.0 Q145.2 291.8 132.1 282.5" fill="none" stroke="#C87D12" stroke-width="8.5" stroke-linecap="round"/>
      <path d="M210.6 262.2 Q203.8 265.1 196.2 266.4 Q188.4 265.9 181.0 263.2 Q174.9 258.7 170.6 252.6 Q168.4 245.7 168.2 238.6 Q169.7 231.9 172.3 225.9 Q175.4 220.9 178.5 216.5 Q181.2 212.5 183.5 208.4" fill="none" stroke="#C87D12" stroke-width="8.5" stroke-linecap="round"/>
      <path d="M257.1 131.8 Q281.3 140.3 301.9 155.4 Q315.9 176.1 322.4 199.5 Q322.6 223.1 318.9 245.8 Q312.5 268.1 302.8 290.2 Q288.2 311.2 267.4 328.4 Q241.4 338.9 213.2 341.2 Q185.7 336.1 160.7 326.1" fill="none" stroke="#C87D12" stroke-width="8.5" stroke-linecap="round"/>
      <path d="M276.8 310.6 Q265.5 319.1 253.1 326.5 Q239.5 332.6 224.9 336.8 Q209.6 339.0 194.0 339.0 Q178.6 336.5 163.8 331.8 Q150.1 324.9 137.8 316.3 Q127.1 306.2 118.0 295.1 Q110.4 283.2 104.4 270.9" fill="none" stroke="#C87D12" stroke-width="8.5" stroke-linecap="round"/>
      <path d="M261.4 226.2 Q264.7 234.5 265.7 243.4 Q263.2 252.1 257.3 259.1 Q249.1 263.9 240.0 266.6 Q231.3 268.1 223.2 269.5 Q215.4 271.7 207.1 274.6 Q197.7 277.3 187.3 278.4 Q176.9 276.7 167.9 271.7" fill="none" stroke="#C87D12" stroke-width="8.5" stroke-linecap="round"/>
      <path d="M156.4 180.1 Q166.3 170.5 177.0 160.3 Q190.2 151.4 206.1 147.2 Q222.6 149.1 237.4 155.3 Q250.9 162.9 264.5 170.2 Q278.7 178.6 291.2 190.1 Q298.6 205.0 299.4 221.4 Q295.6 237.1 290.4 252.0" fill="none" stroke="#C87D12" stroke-width="8.5" stroke-linecap="round"/>
      <path d="M131.7 282.8 Q125.4 269.5 120.1 256.4 Q115.5 243.1 112.0 229.3 Q110.8 215.0 112.9 200.7 Q118.9 187.3 128.5 175.9 Q140.5 167.0 153.7 160.5 Q166.9 155.8 179.8 151.9 Q192.6 148.5 205.8 145.8" fill="none" stroke="#C87D12" stroke-width="8.5" stroke-linecap="round"/>
      <path d="M235.3 262.8 Q228.0 263.9 221.0 263.9 Q214.4 263.1 208.3 261.5 Q202.7 259.5 197.6 257.2 Q192.9 254.5 188.6 251.6 Q184.6 248.3 181.0 244.7 Q178.0 240.6 175.6 236.2 Q174.0 231.4 173.4 226.4" fill="none" stroke="#C87D12" stroke-width="8.5" stroke-linecap="round"/>
      <path d="M278.9 235.2 Q271.7 248.0 260.8 257.6 Q248.4 264.0 236.2 267.9 Q224.6 270.8 213.2 273.5 Q200.9 275.6 187.3 275.9 Q173.4 272.9 160.9 265.6 Q152.3 254.5 148.8 241.3 Q150.6 228.2 156.1 216.6" fill="none" stroke="#C87D12" stroke-width="8.5" stroke-linecap="round"/>
      <path d="M250.0 260.8 Q244.2 273.2 233.9 284.1 Q219.4 288.8 204.4 285.0 Q192.8 274.9 185.6 263.4 Q180.1 254.5 172.7 248.5 Q162.5 242.4 152.8 233.3 Q148.9 221.4 153.6 209.8 Q165.1 202.1 178.4 199.1" fill="none" stroke="#C87D12" stroke-width="8.5" stroke-linecap="round"/>
      <path d="M193.2 248.6 Q187.2 248.9 180.6 248.4 Q173.6 246.7 166.9 243.6 Q161.1 238.9 156.8 233.0 Q154.5 226.2 154.4 219.1 Q156.3 212.3 160.1 206.1 Q165.1 200.9 170.8 196.7 Q176.8 193.4 182.7 190.5" fill="none" stroke="#C87D12" stroke-width="8.5" stroke-linecap="round"/>
      <path d="M256.9 281.8 Q244.6 287.3 231.9 291.5 Q218.9 294.9 205.2 297.7 Q190.5 298.8 175.3 297.3 Q160.6 292.3 148.0 283.7 Q138.3 272.3 131.8 259.2 Q127.9 245.7 125.6 232.0 Q124.3 218.0 124.4 203.5" fill="none" stroke="#C87D12" stroke-width="8.5" stroke-linecap="round"/>
      <path d="M203.8 306.8 Q190.4 304.9 176.7 303.0 Q162.4 300.3 148.0 295.7 Q134.8 288.0 124.4 277.3 Q117.7 264.4 114.6 250.4 Q114.0 236.5 114.4 223.0 Q114.9 209.5 115.9 195.6 Q118.3 181.1 123.6 166.7" fill="none" stroke="#C87D12" stroke-width="8.5" stroke-linecap="round"/>
      <path d="M218.3 269.6 Q207.3 278.6 192.1 286.1 Q176.9 283.8 168.0 271.5 Q165.5 256.8 162.1 246.0 Q152.2 237.4 139.5 225.8 Q134.4 210.7 142.2 197.2 Q157.7 189.6 171.5 184.6 Q180.5 175.7 189.7 161.9" fill="none" stroke="#C87D12" stroke-width="8.5" stroke-linecap="round"/>
      <path d="M224.2 313.7 Q207.4 312.0 191.6 308.0 Q176.9 302.1 163.6 294.7 Q151.5 286.0 140.5 276.0 Q131.0 264.6 123.3 251.9 Q117.8 237.9 115.1 223.0 Q115.6 207.7 119.7 192.7 Q127.3 178.9 138.0 167.1" fill="none" stroke="#C87D12" stroke-width="8.5" stroke-linecap="round"/>
      <path d="M195.8 192.1 Q203.0 191.3 210.1 190.2 Q217.7 188.7 226.5 187.5 Q236.3 187.6 246.5 190.1 Q255.5 195.5 262.1 203.4 Q265.3 212.9 264.8 222.9 Q261.5 232.1 256.5 240.1 Q251.0 247.1 245.5 253.7" fill="none" stroke="#F0A424" stroke-width="7.5" stroke-linecap="round"/>
      <path d="M130.5 222.7 Q132.1 213.0 135.6 203.9 Q141.0 195.7 147.9 188.6 Q155.8 182.9 164.2 178.5 Q172.8 175.3 181.3 172.8 Q189.5 171.0 197.7 169.6 Q205.8 168.7 214.1 168.4 Q222.3 168.9 230.5 170.5" fill="none" stroke="#F0A424" stroke-width="7.5" stroke-linecap="round"/>
      <path d="M221.1 316.5 Q207.7 320.4 193.4 322.5 Q178.8 321.8 164.9 317.6 Q152.4 310.5 141.7 301.4 Q132.4 291.5 123.5 281.4 Q114.5 271.1 105.6 260.0 Q97.8 247.7 92.5 234.0 Q90.8 219.5 92.9 205.1" fill="none" stroke="#F0A424" stroke-width="7.5" stroke-linecap="round"/>
      <path d="M295.4 242.1 Q293.7 254.1 289.5 265.7 Q282.9 276.5 274.0 285.9 Q263.1 293.2 251.0 298.3 Q238.1 301.0 225.2 301.5 Q212.8 300.1 201.1 297.1 Q190.3 293.0 180.4 288.2 Q171.1 282.9 162.2 277.1" fill="none" stroke="#F0A424" stroke-width="7.5" stroke-linecap="round"/>
      <path d="M231.6 180.9 Q235.9 185.4 238.5 191.2 Q239.6 197.3 239.4 203.3 Q238.6 208.6 237.8 213.0 Q237.8 216.5 238.8 219.5 Q240.9 222.5 243.9 226.0 Q247.1 230.1 249.7 235.0 Q251.1 240.3 250.6 245.6" fill="none" stroke="#F0A424" stroke-width="7.5" stroke-linecap="round"/>
      <path d="M242.2 295.8 Q233.4 296.9 224.6 296.5 Q216.1 294.8 208.2 291.8 Q201.0 288.0 194.7 283.6 Q189.2 279.0 184.3 274.4 Q179.9 270.0 175.8 265.8 Q171.7 261.9 167.5 258.2 Q163.2 254.4 158.7 250.3" fill="none" stroke="#F0A424" stroke-width="7.5" stroke-linecap="round"/>
      <path d="M306.9 154.9 Q323.8 173.3 331.6 196.4 Q329.1 220.3 319.7 241.8 Q308.2 260.3 297.6 277.9 Q286.8 296.1 272.5 313.8 Q252.6 327.2 228.7 332.2 Q204.5 327.9 183.6 317.5 Q166.1 305.5 149.7 294.6" fill="none" stroke="#F0A424" stroke-width="7.5" stroke-linecap="round"/>
      <path d="M248.7 157.3 Q256.3 164.5 260.6 174.2 Q262.3 184.4 263.0 193.6 Q264.7 201.1 268.8 207.4 Q275.0 213.8 281.8 221.2 Q286.9 230.1 288.0 239.6 Q284.3 248.4 276.5 255.1 Q266.5 259.5 256.5 262.2" fill="none" stroke="#F0A424" stroke-width="7.5" stroke-linecap="round"/>
      <path d="M160.0 265.1 Q147.8 254.5 138.1 240.7 Q132.8 224.4 133.3 206.9 Q139.8 190.3 151.8 176.6 Q167.4 166.9 184.7 161.6 Q202.3 160.1 219.2 161.5 Q235.6 165.1 251.6 171.0 Q266.9 179.8 280.5 192.1" fill="none" stroke="#F0A424" stroke-width="7.5" stroke-linecap="round"/>
      <path d="M82.0 228.0 Q86.9 208.4 96.8 191.0 Q108.1 175.5 119.0 160.6 Q129.9 145.0 142.7 129.4 Q159.6 116.7 180.3 110.5 Q201.8 107.5 223.3 110.4 Q242.8 118.7 260.6 127.8 Q278.2 136.5 296.6 145.6" fill="none" stroke="#F0A424" stroke-width="7.5" stroke-linecap="round"/>
      <path d="M155.7 176.5 Q162.3 170.1 169.5 164.0 Q177.5 158.5 186.3 153.9 Q196.0 150.6 206.2 149.0 Q216.6 149.1 226.8 151.2 Q236.2 155.0 244.7 160.2 Q252.0 166.5 258.1 173.4 Q263.2 180.7 267.5 188.0" fill="none" stroke="#F0A424" stroke-width="7.5" stroke-linecap="round"/>
      <path d="M179.5 300.5 Q170.0 297.3 161.5 292.3 Q154.5 285.7 149.0 277.9 Q144.8 269.8 141.7 261.6 Q138.9 253.6 136.2 245.8 Q133.3 238.0 130.7 229.9 Q128.6 221.5 127.9 212.7 Q129.1 203.9 132.3 195.5" fill="none" stroke="#F0A424" stroke-width="7.5" stroke-linecap="round"/>
      <path d="M164.4 141.6 Q185.6 132.1 209.1 132.2 Q230.6 140.0 248.5 151.2 Q264.7 162.2 281.9 173.0 Q300.2 186.2 315.8 204.3 Q323.4 227.0 319.8 250.5 Q306.3 270.7 287.6 285.7 Q268.2 297.2 249.3 308.3" fill="none" stroke="#F0A424" stroke-width="7.5" stroke-linecap="round"/>
      <path d="M276.7 169.6 Q283.9 182.0 287.6 195.3 Q288.1 208.7 286.2 221.2 Q282.9 232.9 278.8 243.6 Q274.1 254.0 268.6 264.1 Q261.9 273.9 253.4 282.9 Q242.9 290.4 230.6 295.4 Q217.3 297.2 204.1 295.7" fill="none" stroke="#F0A424" stroke-width="7.5" stroke-linecap="round"/>
      <path d="M219.4 201.0 Q224.6 203.5 232.7 203.4 Q241.8 205.4 246.4 211.6 Q243.6 219.7 236.7 226.0 Q232.1 230.2 232.4 235.2 Q234.3 242.7 232.4 250.0 Q225.5 252.5 217.2 249.0 Q211.2 243.8 207.1 242.1" fill="none" stroke="#F0A424" stroke-width="7.5" stroke-linecap="round"/>
      <path d="M158.3 251.3 Q153.5 245.8 149.9 239.5 Q147.8 232.6 147.2 225.5 Q147.9 218.3 149.7 211.4 Q152.3 204.7 155.5 198.3 Q159.2 192.1 163.3 185.9 Q167.8 179.7 173.0 173.5 Q179.1 167.5 186.1 161.9" fill="none" stroke="#F0A424" stroke-width="7.5" stroke-linecap="round"/>
      <path d="M108.9 237.4 Q114.4 224.7 121.3 213.5 Q128.3 203.7 134.4 194.6 Q139.5 185.4 144.2 175.7 Q149.6 165.5 156.7 155.5 Q166.1 147.1 177.6 141.4 Q190.5 139.4 203.6 141.2 Q215.6 146.3 225.9 153.4" fill="none" stroke="#F0A424" stroke-width="7.5" stroke-linecap="round"/>
      <path d="M231.7 192.8 Q236.4 199.9 244.2 204.0 Q255.3 208.6 265.5 216.7 Q269.0 227.8 263.7 238.4 Q252.7 245.4 241.9 249.3 Q234.6 253.8 229.4 261.8 Q222.4 272.0 211.4 279.5 Q198.6 279.6 188.2 271.9" fill="none" stroke="#F0A424" stroke-width="7.5" stroke-linecap="round"/>
      <path d="M169.8 322.1 Q153.4 311.7 140.3 298.5 Q129.2 284.8 118.5 271.1 Q107.6 256.7 98.3 240.4 Q93.5 222.0 95.2 203.1 Q103.3 185.8 115.8 171.0 Q129.8 158.5 143.8 146.8 Q158.4 134.9 174.9 123.7" fill="none" stroke="#F0A424" stroke-width="7.5" stroke-linecap="round"/>
      <path d="M318.5 239.9 Q313.5 257.9 309.3 277.0 Q302.0 296.6 288.1 313.1 Q267.9 322.8 245.3 324.9 Q223.8 322.7 204.2 320.7 Q184.6 320.5 163.4 319.8 Q142.3 314.1 125.6 301.2 Q116.2 283.0 113.1 263.4" fill="none" stroke="#F0A424" stroke-width="7.5" stroke-linecap="round"/>
      <path d="M278.6 208.3 Q278.5 223.1 273.9 236.9 Q265.9 248.5 255.8 257.6 Q244.9 264.5 233.7 269.6 Q222.0 273.4 209.7 275.5 Q197.0 275.3 184.4 272.1 Q173.3 265.6 165.1 256.3 Q160.8 245.2 160.4 233.8" fill="none" stroke="#F0A424" stroke-width="7.5" stroke-linecap="round"/>
      <path d="M250.5 270.5 Q240.0 280.4 226.8 288.8 Q211.1 293.8 194.1 293.9 Q178.1 288.4 165.3 278.2 Q157.1 265.1 153.1 251.3 Q152.3 238.1 153.0 225.9 Q154.2 214.3 156.2 202.3 Q160.1 189.8 167.3 177.7" fill="none" stroke="#F0A424" stroke-width="7.5" stroke-linecap="round"/>
      <path d="M224.7 295.1 Q215.1 294.7 205.8 293.0 Q197.1 290.3 188.8 287.1 Q181.0 283.6 173.4 279.8 Q165.8 275.8 158.3 271.3 Q151.0 266.1 144.0 260.1 Q137.9 253.1 133.0 245.1 Q129.8 236.4 128.5 227.2" fill="none" stroke="#F0A424" stroke-width="7.5" stroke-linecap="round"/>
      <path d="M200.6 190.5 Q209.1 186.8 217.3 192.4 Q221.3 202.2 223.7 208.5 Q230.2 209.6 241.2 210.5 Q249.6 216.0 248.6 224.4 Q239.4 230.7 230.8 233.8 Q228.4 238.1 229.6 246.9 Q227.4 256.9 219.5 260.6" fill="none" stroke="#F0A424" stroke-width="7.5" stroke-linecap="round"/>
      <path d="M212.2 201.6 Q215.6 201.1 219.4 200.4 Q223.7 199.7 228.5 199.5 Q233.4 200.1 238.1 201.8 Q241.9 204.5 244.6 208.3 Q245.8 212.7 245.4 217.3 Q243.4 221.7 240.3 225.5 Q236.5 228.5 232.5 230.7" fill="none" stroke="#F0A424" stroke-width="7.5" stroke-linecap="round"/>
      <path d="M191.1 239.6 Q190.9 235.9 189.9 233.0 Q187.7 230.6 184.3 227.9 Q180.3 224.4 176.3 219.8 Q173.6 214.2 172.8 208.2 Q174.3 202.6 178.2 198.1 Q183.8 195.3 190.3 194.6 Q196.7 195.7 202.5 197.9" fill="none" stroke="#F0A424" stroke-width="7.5" stroke-linecap="round"/>
      <path d="M309.6 290.3 Q290.7 302.2 270.6 310.2 Q251.5 316.8 232.7 324.0 Q212.5 330.6 190.5 333.6 Q168.5 329.8 149.5 318.8 Q135.5 302.9 125.8 285.6 Q117.5 269.1 108.6 253.0 Q99.9 235.8 94.8 216.5" fill="none" stroke="#F0A424" stroke-width="7.5" stroke-linecap="round"/>
      <path d="M113.4 210.5 Q120.5 195.7 131.0 183.2 Q142.5 172.4 153.9 162.3 Q166.0 152.3 179.8 143.5 Q195.9 138.2 213.0 138.0 Q229.3 142.7 243.5 150.4 Q256.2 159.0 268.5 167.5 Q280.7 176.7 291.7 187.9" fill="none" stroke="#F0A424" stroke-width="7.5" stroke-linecap="round"/>
      <path d="M268.4 222.7 Q270.1 229.0 270.8 235.7 Q270.5 242.4 269.1 249.2 Q266.6 255.8 262.9 262.0 Q258.2 267.6 252.7 272.5 Q246.4 276.6 239.6 279.9 Q232.3 282.3 224.9 283.9 Q217.4 284.6 209.9 284.7" fill="none" stroke="#F0A424" stroke-width="7.5" stroke-linecap="round"/>
      <path d="M162.4 183.2 Q169.0 180.7 175.1 178.3 Q180.9 175.9 186.5 173.3 Q192.0 170.4 197.9 167.3 Q204.2 164.2 211.0 161.6 Q218.4 159.7 226.0 159.0 Q233.7 159.8 241.1 162.0 Q247.6 165.7 253.2 170.7" fill="none" stroke="#F0A424" stroke-width="7.5" stroke-linecap="round"/>
      <path d="M231.5 285.9 Q223.3 289.2 214.4 290.2 Q205.6 288.7 197.5 285.2 Q190.5 280.3 184.4 275.1 Q178.8 270.3 173.0 266.1 Q166.8 262.3 160.2 258.4 Q153.6 253.6 148.1 247.6 Q144.5 240.6 143.4 232.8" fill="none" stroke="#FFC24A" stroke-width="6.5" stroke-linecap="round"/>
      <path d="M115.2 203.4 Q128.3 186.2 144.9 173.4 Q161.5 163.3 178.1 153.9 Q196.2 145.3 217.0 140.3 Q238.9 142.2 258.0 152.1 Q271.3 167.8 278.8 185.4 Q283.1 202.4 286.8 218.6 Q289.8 235.6 289.4 254.0" fill="none" stroke="#FFC24A" stroke-width="6.5" stroke-linecap="round"/>
      <path d="M133.7 296.1 Q124.0 283.5 115.8 270.2 Q108.9 256.4 103.1 241.9 Q98.6 226.5 96.0 210.1 Q95.9 192.9 98.9 175.4 Q105.6 158.3 117.5 143.6 Q132.3 131.4 148.9 121.5 Q167.1 114.1 186.3 109.3" fill="none" stroke="#FFC24A" stroke-width="6.5" stroke-linecap="round"/>
      <path d="M260.1 209.0 Q259.3 217.8 260.1 225.8 Q262.2 234.4 264.1 244.2 Q263.6 254.8 259.1 264.5 Q250.5 271.5 239.3 274.3 Q227.7 273.3 217.3 269.9 Q208.8 266.3 201.3 264.1 Q193.4 263.6 184.1 263.6" fill="none" stroke="#FFC24A" stroke-width="6.5" stroke-linecap="round"/>
      <path d="M217.0 246.7 Q211.1 244.7 205.6 245.8 Q198.0 248.8 188.3 250.0 Q180.0 246.2 177.0 238.3 Q179.9 229.8 184.8 223.4 Q187.7 218.4 187.4 212.2 Q187.1 203.5 190.5 194.7 Q198.4 189.9 208.1 191.4" fill="none" stroke="#FFC24A" stroke-width="6.5" stroke-linecap="round"/>
      <path d="M141.0 304.2 Q130.8 294.8 121.3 284.9 Q112.3 274.4 103.9 263.1 Q96.3 250.7 90.2 237.2 Q85.8 222.6 84.0 207.3 Q87.1 192.2 92.8 177.7 Q100.5 164.1 110.1 151.4 Q121.3 140.1 134.1 130.1" fill="none" stroke="#FFC24A" stroke-width="6.5" stroke-linecap="round"/>
      <path d="M324.8 186.2 Q329.9 207.4 330.5 229.0 Q326.8 250.2 319.1 270.4 Q307.9 289.2 293.4 306.2 Q275.7 320.8 255.2 332.6 Q232.2 340.9 207.4 342.7 Q182.8 340.1 159.1 333.1 Q137.4 322.0 118.4 307.3" fill="none" stroke="#FFC24A" stroke-width="6.5" stroke-linecap="round"/>
      <path d="M173.1 242.2 Q170.9 238.4 169.3 234.3 Q168.6 230.0 168.8 225.7 Q169.7 221.5 171.3 217.6 Q173.6 214.0 176.3 210.8 Q179.4 208.1 182.7 205.7 Q186.1 203.8 189.5 202.2 Q192.9 200.9 196.2 199.8" fill="none" stroke="#FFC24A" stroke-width="6.5" stroke-linecap="round"/>
      <path d="M220.2 185.6 Q224.6 187.3 228.8 189.2 Q233.0 191.1 237.3 193.0 Q241.7 195.1 246.3 197.5 Q250.9 200.2 255.6 203.5 Q260.0 207.4 263.9 211.9 Q267.2 217.1 269.6 222.7 Q270.8 228.7 270.9 234.8" fill="none" stroke="#FFC24A" stroke-width="6.5" stroke-linecap="round"/>
      <path d="M190.9 176.1 Q203.1 169.5 217.8 164.6 Q233.2 166.4 245.6 175.2 Q254.1 186.6 262.3 197.1 Q272.2 207.7 280.1 221.0 Q280.5 236.1 272.7 249.5 Q261.8 259.9 251.8 270.1 Q241.7 281.7 227.9 291.4" fill="none" stroke="#FFC24A" stroke-width="6.5" stroke-linecap="round"/>
      <path d="M134.5 270.1 Q130.1 261.6 127.2 252.7 Q125.8 243.5 125.9 234.4 Q127.4 225.6 130.2 217.1 Q134.0 209.3 138.5 202.2 Q143.7 195.7 149.3 189.8 Q155.2 184.6 161.2 179.8 Q167.5 175.5 174.1 171.6" fill="none" stroke="#FFC24A" stroke-width="6.5" stroke-linecap="round"/>
      <path d="M173.5 211.5 Q177.2 204.7 177.2 193.8 Q180.1 180.9 189.5 172.8 Q202.3 173.8 213.5 180.8 Q222.2 186.3 232.5 186.5 Q246.7 185.2 261.0 188.7 Q268.6 199.1 266.8 212.4 Q261.1 223.7 259.0 233.3" fill="none" stroke="#FFC24A" stroke-width="6.5" stroke-linecap="round"/>
      <path d="M256.1 245.7 Q250.7 250.4 244.5 253.8 Q238.0 256.1 231.6 257.3 Q225.5 257.9 219.9 257.9 Q214.6 257.7 209.5 257.5 Q204.6 257.3 199.4 257.1 Q194.0 256.6 188.3 255.7 Q182.4 254.1 176.6 251.5" fill="none" stroke="#FFC24A" stroke-width="6.5" stroke-linecap="round"/>
      <path d="M130.2 278.8 Q120.1 267.3 111.3 254.5 Q104.3 240.2 99.5 224.5 Q97.7 207.9 99.3 190.9 Q104.5 174.2 113.4 158.6 Q125.6 145.0 140.5 133.8 Q157.4 125.4 175.6 120.1 Q194.3 117.6 213.0 117.6" fill="none" stroke="#FFC24A" stroke-width="6.5" stroke-linecap="round"/>
      <path d="M128.0 280.8 Q120.4 267.3 117.5 252.3 Q118.2 237.5 121.0 223.7 Q124.2 210.6 127.2 197.8 Q130.7 184.5 136.2 171.2 Q145.0 159.2 157.3 150.0 Q172.1 144.8 187.7 143.7 Q202.8 145.4 216.7 148.4" fill="none" stroke="#FFC24A" stroke-width="6.5" stroke-linecap="round"/>
      <path d="M188.4 118.3 Q203.7 115.4 219.3 116.8 Q233.8 122.2 246.4 130.5 Q257.1 140.2 266.2 149.9 Q274.9 158.9 284.1 167.0 Q294.0 175.0 304.2 183.9 Q313.5 194.4 320.2 206.6 Q322.9 219.9 321.1 233.4" fill="none" stroke="#FFC24A" stroke-width="6.5" stroke-linecap="round"/>
      <path d="M287.1 264.1 Q280.3 275.8 272.7 287.9 Q263.6 300.3 252.0 312.1 Q237.5 322.2 220.5 329.2 Q201.8 332.0 182.9 330.0 Q165.3 323.4 150.2 313.2 Q137.9 300.6 128.3 286.8 Q120.6 272.7 114.0 258.5" fill="none" stroke="#FFC24A" stroke-width="6.5" stroke-linecap="round"/>
      <path d="M237.2 122.8 Q257.8 125.6 277.0 133.4 Q293.1 145.9 304.6 162.1 Q310.9 180.2 312.8 198.4 Q311.5 215.9 308.4 232.1 Q304.5 247.6 300.0 263.1 Q294.2 278.8 286.0 294.6 Q274.2 309.3 258.7 321.4" fill="none" stroke="#FFC24A" stroke-width="6.5" stroke-linecap="round"/>
      <path d="M135.0 167.2 Q146.2 159.8 158.9 155.2 Q171.8 152.7 184.1 151.2 Q195.8 149.5 207.3 147.1 Q219.6 144.2 233.0 141.9 Q247.3 141.5 261.4 144.2 Q274.2 150.5 284.2 160.0 Q291.0 171.8 294.6 184.5" fill="none" stroke="#FFC24A" stroke-width="6.5" stroke-linecap="round"/>
      <path d="M154.9 272.7 Q144.7 260.0 141.6 244.6 Q142.4 229.7 142.8 215.5 Q142.3 200.2 144.5 183.3 Q153.4 167.8 169.1 157.9 Q187.6 154.7 205.6 155.3 Q222.8 155.7 241.4 155.7 Q261.5 158.9 279.4 168.8" fill="none" stroke="#FFC24A" stroke-width="6.5" stroke-linecap="round"/>
      <path d="M231.5 285.9 Q223.3 289.2 214.4 290.2 Q205.6 288.7 197.5 285.2 Q190.5 280.3 184.4 275.1 Q178.8 270.3 173.0 266.1 Q166.8 262.3 160.2 258.4 Q153.6 253.6 148.1 247.6 Q144.5 240.6 143.4 232.8" fill="none" stroke="#FFE49A" stroke-width="2" stroke-linecap="round" opacity="0.85"/>
      <path d="M115.2 203.4 Q128.3 186.2 144.9 173.4 Q161.5 163.3 178.1 153.9 Q196.2 145.3 217.0 140.3 Q238.9 142.2 258.0 152.1 Q271.3 167.8 278.8 185.4 Q283.1 202.4 286.8 218.6 Q289.8 235.6 289.4 254.0" fill="none" stroke="#FFE49A" stroke-width="2" stroke-linecap="round" opacity="0.85"/>
      <path d="M133.7 296.1 Q124.0 283.5 115.8 270.2 Q108.9 256.4 103.1 241.9 Q98.6 226.5 96.0 210.1 Q95.9 192.9 98.9 175.4 Q105.6 158.3 117.5 143.6 Q132.3 131.4 148.9 121.5 Q167.1 114.1 186.3 109.3" fill="none" stroke="#FFE49A" stroke-width="2" stroke-linecap="round" opacity="0.85"/>
      <path d="M260.1 209.0 Q259.3 217.8 260.1 225.8 Q262.2 234.4 264.1 244.2 Q263.6 254.8 259.1 264.5 Q250.5 271.5 239.3 274.3 Q227.7 273.3 217.3 269.9 Q208.8 266.3 201.3 264.1 Q193.4 263.6 184.1 263.6" fill="none" stroke="#FFE49A" stroke-width="2" stroke-linecap="round" opacity="0.85"/>
      <path d="M217.0 246.7 Q211.1 244.7 205.6 245.8 Q198.0 248.8 188.3 250.0 Q180.0 246.2 177.0 238.3 Q179.9 229.8 184.8 223.4 Q187.7 218.4 187.4 212.2 Q187.1 203.5 190.5 194.7 Q198.4 189.9 208.1 191.4" fill="none" stroke="#FFE49A" stroke-width="2" stroke-linecap="round" opacity="0.85"/>
      <path d="M141.0 304.2 Q130.8 294.8 121.3 284.9 Q112.3 274.4 103.9 263.1 Q96.3 250.7 90.2 237.2 Q85.8 222.6 84.0 207.3 Q87.1 192.2 92.8 177.7 Q100.5 164.1 110.1 151.4 Q121.3 140.1 134.1 130.1" fill="none" stroke="#FFE49A" stroke-width="2" stroke-linecap="round" opacity="0.85"/>
      <path d="M324.8 186.2 Q329.9 207.4 330.5 229.0 Q326.8 250.2 319.1 270.4 Q307.9 289.2 293.4 306.2 Q275.7 320.8 255.2 332.6 Q232.2 340.9 207.4 342.7 Q182.8 340.1 159.1 333.1 Q137.4 322.0 118.4 307.3" fill="none" stroke="#FFE49A" stroke-width="2" stroke-linecap="round" opacity="0.85"/>
      <path d="M173.1 242.2 Q170.9 238.4 169.3 234.3 Q168.6 230.0 168.8 225.7 Q169.7 221.5 171.3 217.6 Q173.6 214.0 176.3 210.8 Q179.4 208.1 182.7 205.7 Q186.1 203.8 189.5 202.2 Q192.9 200.9 196.2 199.8" fill="none" stroke="#FFE49A" stroke-width="2" stroke-linecap="round" opacity="0.85"/>
      <path d="M220.2 185.6 Q224.6 187.3 228.8 189.2 Q233.0 191.1 237.3 193.0 Q241.7 195.1 246.3 197.5 Q250.9 200.2 255.6 203.5 Q260.0 207.4 263.9 211.9 Q267.2 217.1 269.6 222.7 Q270.8 228.7 270.9 234.8" fill="none" stroke="#FFE49A" stroke-width="2" stroke-linecap="round" opacity="0.85"/>
      <path d="M190.9 176.1 Q203.1 169.5 217.8 164.6 Q233.2 166.4 245.6 175.2 Q254.1 186.6 262.3 197.1 Q272.2 207.7 280.1 221.0 Q280.5 236.1 272.7 249.5 Q261.8 259.9 251.8 270.1 Q241.7 281.7 227.9 291.4" fill="none" stroke="#FFE49A" stroke-width="2" stroke-linecap="round" opacity="0.85"/>
      <path d="M134.5 270.1 Q130.1 261.6 127.2 252.7 Q125.8 243.5 125.9 234.4 Q127.4 225.6 130.2 217.1 Q134.0 209.3 138.5 202.2 Q143.7 195.7 149.3 189.8 Q155.2 184.6 161.2 179.8 Q167.5 175.5 174.1 171.6" fill="none" stroke="#FFE49A" stroke-width="2" stroke-linecap="round" opacity="0.85"/>
      <path d="M173.5 211.5 Q177.2 204.7 177.2 193.8 Q180.1 180.9 189.5 172.8 Q202.3 173.8 213.5 180.8 Q222.2 186.3 232.5 186.5 Q246.7 185.2 261.0 188.7 Q268.6 199.1 266.8 212.4 Q261.1 223.7 259.0 233.3" fill="none" stroke="#FFE49A" stroke-width="2" stroke-linecap="round" opacity="0.85"/>
  </g>

  <!-- garnish under toppings -->
  <g clip-path="url(#noodleClip)"><rect x="262" y="211" width="20" height="4.6" rx="2.3" fill="#D64545" transform="rotate(75 262 211)"/><rect x="214" y="127" width="20" height="4.6" rx="2.3" fill="#4C8C3F" transform="rotate(220 214 127)"/><rect x="271" y="204" width="20" height="4.6" rx="2.3" fill="#D64545" transform="rotate(122 271 204)"/><rect x="162" y="282" width="20" height="4.6" rx="2.3" fill="#4C8C3F" transform="rotate(196 162 282)"/><rect x="218" y="182" width="20" height="4.6" rx="2.3" fill="#D64545" transform="rotate(247 218 182)"/><rect x="209" y="135" width="20" height="4.6" rx="2.3" fill="#D64545" transform="rotate(64 209 135)"/><rect x="237" y="195" width="20" height="4.6" rx="2.3" fill="#D64545" transform="rotate(226 237 195)"/><rect x="198" y="166" width="16" height="3.4" rx="1.7" fill="#F57C00" transform="rotate(52 198 166)"/><rect x="119" y="234" width="16" height="3.4" rx="1.7" fill="#F57C00" transform="rotate(352 119 234)"/><rect x="283" y="263" width="16" height="3.4" rx="1.7" fill="#F57C00" transform="rotate(230 283 263)"/><rect x="252" y="205" width="16" height="3.4" rx="1.7" fill="#F57C00" transform="rotate(289 252 205)"/><rect x="206" y="163" width="16" height="3.4" rx="1.7" fill="#F57C00" transform="rotate(120 206 163)"/><rect x="210" y="305" width="16" height="3.4" rx="1.7" fill="#F57C00" transform="rotate(75 210 305)"/></g>

  <!-- grilled sausage slices -->
  <g>
    <g transform="translate(268 262) rotate(-14)">
      <ellipse rx="30" ry="21" fill="#7E2F22"/><ellipse rx="25" ry="16.5" fill="#C4573B"/><ellipse rx="21" ry="13" fill="#D87A55"/>
      <path d="M-13 -5 L13 -8 M-14 1 L14 0 M-12 7 L12 8" stroke="#8A3526" stroke-width="2.8" stroke-linecap="round" opacity="0.9"/>
      <ellipse cx="-7" cy="-6" rx="7" ry="4" fill="#EFA57F" opacity="0.7"/>
    </g>
    <g transform="translate(148 300) rotate(18)">
      <ellipse rx="27" ry="19" fill="#7E2F22"/><ellipse rx="22.5" ry="15" fill="#C4573B"/><ellipse rx="19" ry="12" fill="#D87A55"/>
      <path d="M-11 -4 L11 -6 M-11 2 L11 1 M-9 7 L9 7" stroke="#8A3526" stroke-width="2.5" stroke-linecap="round" opacity="0.9"/>
    </g>
    <g transform="translate(305 190) rotate(30)">
      <ellipse rx="24" ry="17" fill="#7E2F22"/><ellipse rx="20" ry="13.5" fill="#C4573B"/><ellipse rx="16.5" ry="10.5" fill="#D87A55"/>
      <path d="M-9 -4 L9 -5 M-9 1 L9 1 M-8 6 L8 6" stroke="#8A3526" stroke-width="2.2" stroke-linecap="round" opacity="0.9"/>
    </g>
  </g>

  <!-- grilled chicken pieces -->
  <g>
    <g transform="translate(128 178) rotate(-8)">
      <path d="M-30 -2 Q-26 -20 -4 -22 Q22 -24 30 -8 Q34 6 20 16 Q0 26 -18 18 Q-32 12 -30 -2 Z" fill="#9C5A1E"/>
      <path d="M-24 -4 Q-20 -16 -2 -17 Q18 -19 24 -6 Q27 4 16 12 Q0 19 -14 13 Q-25 8 -24 -4 Z" fill="#B5651D"/>
      <path d="M-16 -8 Q-4 -14 12 -9" stroke="#D68740" stroke-width="4" fill="none" stroke-linecap="round"/>
      <path d="M-18 6 L14 9 M-12 -2 L18 2" stroke="#7A4212" stroke-width="2" stroke-linecap="round" opacity="0.8"/>
    </g>
    <g transform="translate(232 138) rotate(14) scale(0.82)">
      <path d="M-30 -2 Q-26 -20 -4 -22 Q22 -24 30 -8 Q34 6 20 16 Q0 26 -18 18 Q-32 12 -30 -2 Z" fill="#9C5A1E"/>
      <path d="M-24 -4 Q-20 -16 -2 -17 Q18 -19 24 -6 Q27 4 16 12 Q0 19 -14 13 Q-25 8 -24 -4 Z" fill="#B5651D"/>
      <path d="M-16 -8 Q-4 -14 12 -9" stroke="#D68740" stroke-width="4" fill="none" stroke-linecap="round"/>
      <path d="M-18 6 L14 9" stroke="#7A4212" stroke-width="2" stroke-linecap="round" opacity="0.8"/>
    </g>
  </g>

  <!-- fried egg -->
  <g transform="translate(178 235)">
    <path d="M-52 4 Q-56 -26 -30 -38 Q-2 -50 28 -42 Q56 -34 54 -6 Q52 20 26 32 Q-2 44 -30 32 Q-50 24 -52 4 Z" fill="#FFF6E8"/>
    <path d="M-45 2 Q-48 -22 -26 -32 Q-2 -42 24 -35 Q48 -28 46 -5 Q44 16 22 26 Q-2 36 -26 26 Q-43 19 -45 2 Z" fill="#FFFDF8"/>
    <circle cx="-2" cy="-3" r="19" fill="url(#yolk)"/>
    <circle cx="-2" cy="-3" r="19" fill="none" stroke="#D98E12" stroke-width="1.4" opacity="0.7"/>
    <ellipse cx="-8.5" cy="-9.5" rx="6" ry="4" fill="#FFE9B0" opacity="0.95"/>
  </g>

  <!-- spring onion + chili on top -->
  <g clip-path="url(#noodleClip)"><g transform="translate(142 164) rotate(101)"><ellipse rx="6.5" ry="5.5" fill="#7CB342"/><ellipse rx="3.6" ry="3" fill="#DCEDC8"/></g><g transform="translate(242 125) rotate(330)"><ellipse rx="6.5" ry="5.5" fill="#7CB342"/><ellipse rx="3.6" ry="3" fill="#DCEDC8"/></g><g transform="translate(203 123) rotate(276)"><ellipse rx="6.5" ry="5.5" fill="#7CB342"/><ellipse rx="3.6" ry="3" fill="#DCEDC8"/></g><g transform="translate(280 237) rotate(57)"><ellipse rx="6.5" ry="5.5" fill="#7CB342"/><ellipse rx="3.6" ry="3" fill="#DCEDC8"/></g><g transform="translate(292 197) rotate(287)"><ellipse rx="6.5" ry="5.5" fill="#7CB342"/><ellipse rx="3.6" ry="3" fill="#DCEDC8"/></g><g transform="translate(242 204) rotate(50)"><ellipse rx="6.5" ry="5.5" fill="#7CB342"/><ellipse rx="3.6" ry="3" fill="#DCEDC8"/></g><g transform="translate(159 234) rotate(222)"><ellipse rx="6.5" ry="5.5" fill="#7CB342"/><ellipse rx="3.6" ry="3" fill="#DCEDC8"/></g><g transform="translate(133 205) rotate(46)"><ellipse rx="6.5" ry="5.5" fill="#7CB342"/><ellipse rx="3.6" ry="3" fill="#DCEDC8"/></g><g transform="translate(259 229) rotate(1)"><ellipse rx="6.5" ry="5.5" fill="#7CB342"/><ellipse rx="3.6" ry="3" fill="#DCEDC8"/></g><rect x="241" y="195" width="4" height="2.6" rx="1.2" fill="#C62828" transform="rotate(173 241 195)"/><rect x="236" y="333" width="4" height="2.6" rx="1.2" fill="#C62828" transform="rotate(254 236 333)"/><rect x="247" y="190" width="4" height="2.6" rx="1.2" fill="#C62828" transform="rotate(21 247 190)"/><rect x="285" y="208" width="4" height="2.6" rx="1.2" fill="#C62828" transform="rotate(351 285 208)"/><rect x="190" y="188" width="4" height="2.6" rx="1.2" fill="#C62828" transform="rotate(8 190 188)"/><rect x="296" y="194" width="4" height="2.6" rx="1.2" fill="#C62828" transform="rotate(270 296 194)"/><rect x="319" y="204" width="4" height="2.6" rx="1.2" fill="#C62828" transform="rotate(304 319 204)"/><rect x="192" y="278" width="4" height="2.6" rx="1.2" fill="#C62828" transform="rotate(7 192 278)"/><rect x="230" y="256" width="4" height="2.6" rx="1.2" fill="#C62828" transform="rotate(284 230 256)"/><rect x="260" y="245" width="4" height="2.6" rx="1.2" fill="#C62828" transform="rotate(132 260 245)"/><rect x="190" y="211" width="4" height="2.6" rx="1.2" fill="#C62828" transform="rotate(208 190 211)"/><rect x="185" y="177" width="4" height="2.6" rx="1.2" fill="#C62828" transform="rotate(3 185 177)"/><rect x="172" y="314" width="4" height="2.6" rx="1.2" fill="#C62828" transform="rotate(17 172 314)"/><rect x="155" y="231" width="4" height="2.6" rx="1.2" fill="#C62828" transform="rotate(65 155 231)"/></g>

  <!-- chopsticks resting on the rim -->
  <g transform="translate(0 0)">
    <rect x="252" y="26" width="9" height="188" rx="4.5" fill="url(#stick)" transform="rotate(36 256 30)"/>
    <rect x="270" y="30" width="9" height="182" rx="4.5" fill="url(#stick)" transform="rotate(30 274 34)"/>
  </g>

  <!-- steam -->
  <g stroke="#FFF8F0" fill="none" stroke-linecap="round" filter="url(#steamBlur)">
    <path d="M158 92 Q146 68 158 48 Q170 28 160 6" stroke-width="7" opacity="0.28"/>
    <path d="M208 84 Q196 58 210 38 Q222 20 212 -2" stroke-width="8" opacity="0.34"/>
    <path d="M258 96 Q248 74 260 54 Q272 34 264 14" stroke-width="6.5" opacity="0.26"/>
  </g>
</svg>