<svg xmlns="http://www.w3.org/2000/svg" viewBox="0 0 29 29" shape-rendering="crispEdges"><path d="M0 0h7v1h-7zM8 0h2v1h-2zM11 0h5v1h-5zM18 0h3v1h-3zM22 0h7v1h-7zM0 1h1v1h-1zM6 1h1v1h-1zM8 1h6v1h-6zM16 1h2v1h-2zM22 1h1v1h-1zM28 1h1v1h-1zM0 2h1v1h-1zM2 2h3v1h-3zM6 2h1v1h-1zM9 2h4v1h-4zM16 2h1v1h-1zM18 2h1v1h-1zM20 2h1v1h-1zM22 2h1v1h-1zM24 2h3v1h-3zM28 2h1v1h-1zM0 3h1v1h-1zM2 3h3v1h-3zM6 3h1v1h-1zM8 3h1v1h-1zM10 3h2v1h-2zM14 3h2v1h-2zM17 3h1v1h-1zM19 3h1v1h-1zM22 3h1v1h-1zM24 3h3v1h-3zM28 3h1v1h-1zM0 4h1v1h-1zM2 4h3v1h-3zM6 4h1v1h-1zM9 4h1v1h-1zM12 4h1v1h-1zM14 4h1v1h-1zM16 4h2v1h-2zM19 4h2v1h-2zM22 4h1v1h-1zM24 4h3v1h-3zM28 4h1v1h-1zM0 5h1v1h-1zM6 5h1v1h-1zM9 5h1v1h-1zM11 5h3v1h-3zM15 5h3v1h-3zM19 5h2v1h-2zM22 5h1v1h-1zM28 5h1v1h-1zM0 6h7v1h-7zM8 6h1v1h-1zM10 6h1v1h-1zM12 6h1v1h-1zM14 6h1v1h-1zM16 6h1v1h-1zM18 6h1v1h-1zM20 6h1v1h-1zM22 6h7v1h-7zM8 7h1v1h-1zM10 7h1v1h-1zM12 7h1v1h-1zM15 7h3v1h-3zM0 8h1v1h-1zM2 8h2v1h-2zM5 8h3v1h-3zM10 8h1v1h-1zM12 8h2v1h-2zM15 8h4v1h-4zM22 8h1v1h-1zM25 8h1v1h-1zM27 8h2v1h-2zM0 9h1v1h-1zM2 9h1v1h-1zM5 9h1v1h-1zM7 9h2v1h-2zM10 9h1v1h-1zM13 9h3v1h-3zM17 9h8v1h-8zM28 9h1v1h-1zM0 10h5v1h-5zM6 10h2v1h-2zM10 10h1v1h-1zM13 10h1v1h-1zM16 10h3v1h-3zM23 10h1v1h-1zM26 10h2v1h-2zM2 11h3v1h-3zM7 11h1v1h-1zM11 11h2v1h-2zM15 11h2v1h-2zM20 11h4v1h-4zM28 11h1v1h-1zM0 12h1v1h-1zM4 12h1v1h-1zM6 12h1v1h-1zM9 12h3v1h-3zM14 12h4v1h-4zM19 12h1v1h-1zM23 12h1v1h-1zM25 12h2v1h-2zM1 13h2v1h-2zM4 13h2v1h-2zM8 13h1v1h-1zM12 13h1v1h-1zM14 13h4v1h-4zM19 13h1v1h-1zM22 13h1v1h-1zM26 13h3v1h-3zM0 14h2v1h-2zM3 14h7v1h-7zM12 14h2v1h-2zM18 14h7v1h-7zM26 14h3v1h-3zM0 15h1v1h-1zM2 15h2v1h-2zM7 15h3v1h-3zM11 15h1v1h-1zM14 15h3v1h-3zM19 15h1v1h-1zM22 15h1v1h-1zM24 15h1v1h-1zM27 15h1v1h-1zM1 16h6v1h-6zM10 16h1v1h-1zM12 16h1v1h-1zM14 16h1v1h-1zM18 16h1v1h-1zM20 16h2v1h-2zM24 16h2v1h-2zM27 16h1v1h-1zM3 17h1v1h-1zM5 17h1v1h-1zM9 17h1v1h-1zM11 17h1v1h-1zM14 17h2v1h-2zM18 17h1v1h-1zM20 17h2v1h-2zM23 17h1v1h-1zM25 17h3v1h-3zM0 18h1v1h-1zM2 18h1v1h-1zM5 18h2v1h-2zM9 18h2v1h-2zM12 18h4v1h-4zM17 18h2v1h-2zM21 18h1v1h-1zM26 18h1v1h-1zM4 19h1v1h-1zM10 19h1v1h-1zM13 19h2v1h-2zM16 19h4v1h-4zM22 19h1v1h-1zM24 19h1v1h-1zM26 19h1v1h-1zM1 20h6v1h-6zM8 20h1v1h-1zM10 20h2v1h-2zM13 20h6v1h-6zM20 20h7v1h-7zM8 21h3v1h-3zM16 21h3v1h-3zM20 21h1v1h-1zM24 21h5v1h-5zM0 22h7v1h-7zM8 22h2v1h-2zM11 22h2v1h-2zM14 22h1v1h-1zM18 22h3v1h-3zM22 22h1v1h-1zM24 22h2v1h-2zM27 22h1v1h-1zM0 23h1v1h-1zM6 23h1v1h-1zM8 23h2v1h-2zM13 23h2v1h-2zM19 23h2v1h-2zM24 23h2v1h-2zM0 24h1v1h-1zM2 24h3v1h-3zM6 24h1v1h-1zM9 24h4v1h-4zM15 24h1v1h-1zM17 24h1v1h-1zM20 24h5v1h-5zM26 24h2v1h-2zM0 25h1v1h-1zM2 25h3v1h-3zM6 25h1v1h-1zM8 25h1v1h-1zM11 25h1v1h-1zM15 25h2v1h-2zM19 25h3v1h-3zM23 25h3v1h-3zM28 25h1v1h-1zM0 26h1v1h-1zM2 26h3v1h-3zM6 26h1v1h-1zM8 26h2v1h-2zM12 26h2v1h-2zM17 26h2v1h-2zM20 26h1v1h-1zM23 26h1v1h-1zM26 26h1v1h-1zM28 26h1v1h-1zM0 27h1v1h-1zM6 27h1v1h-1zM12 27h1v1h-1zM16 27h1v1h-1zM20 27h2v1h-2zM23 27h3v1h-3zM27 27h1v1h-1zM0 28h7v1h-7zM8 28h1v1h-1zM11 28h1v1h-1zM13 28h3v1h-3zM18 28h4v1h-4zM23 28h2v1h-2zM27 28h1v1h-1z" fill="currentColor"/></svg>