<svg xmlns="http://www.w3.org/2000/svg" viewBox="0 0 800 560" role="img" aria-label="Golden hour over rolling estate land">
  <defs>
    <linearGradient id="sky4" x1="0" y1="0" x2="0" y2="1">
      <stop offset="0" stop-color="#f6ead0"/>
      <stop offset="1" stop-color="#e9cf96"/>
    </linearGradient>
    <linearGradient id="hill4a" x1="0" y1="0" x2="0" y2="1">
      <stop offset="0" stop-color="#3d8a58"/>
      <stop offset="1" stop-color="#1e6a43"/>
    </linearGradient>
    <linearGradient id="hill4b" x1="0" y1="0" x2="0" y2="1">
      <stop offset="0" stop-color="#1e6a43"/>
      <stop offset="1" stop-color="#0b2a1f"/>
    </linearGradient>
  </defs>
  <rect width="800" height="340" fill="url(#sky4)"/>
  <circle cx="400" cy="230" r="78" fill="#d4af37"/>
  <circle cx="400" cy="230" r="106" fill="#d4af37" opacity="0.22"/>
  <path d="M0 320 Q200 250 400 305 T800 290 V560 H0 Z" fill="url(#hill4a)"/>
  <path d="M0 400 Q260 330 520 395 T800 380 V560 H0 Z" fill="url(#hill4b)"/>
  <g stroke="#e8dcb5" stroke-width="3" opacity="0.5" fill="none">
    <path d="M120 560 L240 420 M420 560 L430 420 M690 560 L600 420"/>
    <path d="M60 500 H740"/>
  </g>
  <g fill="#faf9f5">
    <rect x="540" y="330" width="64" height="46" rx="4"/>
    <path d="M534 334 l38 -30 38 30z" fill="#c9a227"/>
    <rect x="562" y="352" width="18" height="24" fill="#175033"/>
  </g>
  <g fill="#0b2a1f">
    <circle cx="120" cy="300" r="30"/>
    <circle cx="96" cy="318" r="20"/>
    <rect x="114" y="322" width="10" height="22" rx="4"/>
  </g>
</svg>
